<svg xmlns="http://www.w3.org/2000/svg" viewBox="0 0 1152 512"><defs><style>.cls-1{fill:#008198;}.cls-2{fill:#eee;}</style></defs><g id="Layer_2" data-name="Layer 2"><g id="Layer_1-2" data-name="Layer 1"><rect class="cls-1" width="1152" height="512"/><path class="cls-2" d="M738.64,146.32V339.58c0,15.77-12.85,30.24-28.61,32.19l-5,.65c-26.66,3.57-64.2,14.63-94.44,27.3-10.56,4.39-22.26-3.57-22.26-15.11V158.51a16.57,16.57,0,0,1,8.77-14.46c29.75-16.09,74.77-30.4,105.33-33h1A35.25,35.25,0,0,1,738.64,146.32Z"/><path class="cls-2" d="M555.1,144.05c-29.75-16.09-74.77-30.4-105.33-33h-1.13a35.25,35.25,0,0,0-35.28,35.27V339.58c0,15.77,12.85,30.24,28.61,32.19l5,.65c26.66,3.57,64.2,14.63,94.44,27.3,10.56,4.39,22.26-3.57,22.26-15.11V158.51A16.24,16.24,0,0,0,555.1,144.05ZM462.29,193.3h36.57a12.19,12.19,0,0,1,0,24.38H462.29a12.19,12.19,0,0,1,0-24.38Zm48.76,73.14H462.29a12.19,12.19,0,0,1,0-24.38h48.76a12.19,12.19,0,0,1,0,24.38Z"/></g></g></svg>