<svg xmlns="http://www.w3.org/2000/svg" viewBox="0 0 1152 512"><defs><style>.cls-1{fill:#d80027;}.cls-2{fill:#ffda44;}</style></defs><g id="Layer_2" data-name="Layer 2"><g id="Layer_2-2" data-name="Layer 2"><rect class="cls-1" width="1152" height="512"/><path class="cls-2" d="M496.15,156.1l22.1,68h71.5L532,266.2l22.1,68-57.9-42-57.9,42,22.2-68-57.9-42.1h71.5Zm163.4,240.7L642.65,376l-25,9.7,14.5-22.5-16.9-20.9,25.9,6.9,14.6-22.5,1.4,26.8,26,6.9-25.1,9.6Zm33.6-61,8-25.6-21.9-15.5,26.8-.4,7.9-25.6,8.7,25.4,26.8-.3-21.5,16,8.6,25.4-21.9-15.5Zm45.3-147.6-11.8,24.1,19.2,18.7-26.5-3.8-11.8,24L703,224.8l-26.6-3.8,23.8-12.5-4.6-26.5,19.2,18.7Zm-78.2-73-2,26.7,24.9,10.1-26.1,6.4-1.9,26.8-14.1-22.8L615,168.8l17.3-20.5-14.2-22.7L643,135.7Z"/></g></g></svg>