<?xml version="1.0" encoding="utf-8"?>
<!-- Generator: Adobe Illustrator 24.3.0, SVG Export Plug-In . SVG Version: 6.00 Build 0)  -->
<svg version="1.1" id="Layer_1" xmlns="http://www.w3.org/2000/svg" xmlns:xlink="http://www.w3.org/1999/xlink" x="0px" y="0px"
	 viewBox="0 0 512 512" style="enable-background:new 0 0 512 512;" xml:space="preserve">
<style type="text/css">
	.st0{fill:#EEEEEE;}
	.st1{fill:#FFFFFF;filter:url(#Adobe_OpacityMaskFilter);}
	.st2{mask:url(#a_1_);}
	.st3{fill:#D80027;}
	.st4{fill:#0052B4;}
	.st5{fill:#333333;}
</style>
<rect class="st0" width="512" height="512"/>
<defs>
	<filter id="Adobe_OpacityMaskFilter" filterUnits="userSpaceOnUse" x="0" y="0" width="512" height="512">
		<feColorMatrix  type="matrix" values="1 0 0 0 0  0 1 0 0 0  0 0 1 0 0  0 0 0 1 0"/>
	</filter>
</defs>
<mask maskUnits="userSpaceOnUse" x="0" y="0" width="512" height="512" id="a_1_">
	<circle class="st1" cx="256" cy="256" r="256"/>
</mask>
<g class="st2">
	<path class="st0" d="M0,0h512v512H0V0z"/>
	<path class="st3" d="M345,256c0,22.3-39.8,78-89,78s-89-55.7-89-78c0-49.2,39.8-89,89-89S345,206.8,345,256z"/>
	<path class="st4" d="M345,256c0,49.2-39.8,89-89,89s-89-39.8-89-89"/>
	<path class="st5" d="M350.4,334.7l23.7-23.6l15.7,15.7l-23.6,23.6L350.4,334.7z M311.1,374.1l23.6-23.7l15.7,15.8l-23.6,23.6
		L311.1,374.1z M397.7,381.9l23.6-23.6L437,374l-23.6,23.7L397.7,381.9z M358.3,421.3l23.6-23.6l15.8,15.7L374,437L358.3,421.3z
		 M374.1,358.3l23.6-23.6l15.7,15.7l-23.6,23.7L374.1,358.3z M334.7,397.7l23.6-23.6l15.8,15.7l-23.7,23.6L334.7,397.7z
		 M397.7,177.3l-63-63l15.8-15.7l63,63L397.7,177.3z M334.7,161.6l-23.6-23.7l15.7-15.7l23.7,23.6L334.7,161.6z M374.1,200.9
		l-23.7-23.6l15.8-15.7l23.6,23.6L374.1,200.9z M381.9,114.3l-23.6-23.6L374,75l23.7,23.6L381.9,114.3z M421.3,153.7L397.7,130
		l15.7-15.8L437,138L421.3,153.7z M90.7,358.3l63,63L137.9,437l-63-63L90.7,358.3z M153.7,374l23.6,23.7l-15.7,15.7l-23.7-23.6
		L153.7,374z M114.3,334.7l23.6,23.6l-15.7,15.8l-23.6-23.7L114.3,334.7z M137.9,311.1l63,63l-15.7,15.7l-63-63L137.9,311.1z
		 M153.7,90.7l-63,63L75,137.9l63-63L153.7,90.7z M177.3,114.3l-63,63l-15.7-15.8l63-63L177.3,114.3z M200.9,137.9l-63,63
		l-15.7-15.7l63-63L200.9,137.9z"/>
</g>
</svg>
