<svg xmlns="http://www.w3.org/2000/svg" viewBox="0 0 1152 512"><defs><style>.cls-1{fill:#9ec29e;}.cls-2{fill:#fffffc;}</style></defs><g id="Layer_2" data-name="Layer 2"><g id="Layer_2-2" data-name="Layer 2"><rect class="cls-1" width="1152" height="512"/><path class="cls-2" d="M619.56,305.29c10.19,0,14.87-5.92,14.87-15.41,0-8.08-4.52-14.81-14.43-14.81-8.5,0-13.37,5.92-13.37,14.9,0,8,4.69,15.32,12.93,15.32ZM547.9,308c11.2,0,16.31-6.49,16.31-16.92,0-8.85-5-16.26-15.86-16.26-9.34,0-14.69,6.53-14.69,16.35,0,8.75,5.16,16.83,14.24,16.83ZM727.06,233.4l-25.62.24a7.19,7.19,0,0,1-7.23-7.8l9.63-112.41a7.18,7.18,0,0,0-8.26-7.71L449.07,144a7.18,7.18,0,0,0-5.83,9l18,66.67a7.19,7.19,0,0,1-6.94,9.06H424.88a7.18,7.18,0,0,0-6.83,9.4L463,376.38a7.19,7.19,0,0,0,7.88,4.89l102.17-15a7.19,7.19,0,0,1,8.23,7.11v25.85a7.19,7.19,0,0,0,10.18,6.53L712.92,350a7.19,7.19,0,0,0,4.09-5.35l17.2-102.85A7.19,7.19,0,0,0,727.06,233.4Zm-109.36-55a1.36,1.36,0,0,1,1.29-1.37l27.55-1.84,6.54-.42c7.68-.52,23.95.92,23.95,18.12a20.83,20.83,0,0,1-3.45,11.76,7.93,7.93,0,0,0,.93,9.75c2.22,2.43,4.08,6.18,3.81,11.86,0,22.33-25.75,20.61-28.28,20.38l-.47,0-3-.09-28-.77a1.31,1.31,0,0,1-1.26-1.32l.4-66ZM563.82,182a1.37,1.37,0,0,1,1.29-1.35l44.92-3a1.17,1.17,0,0,1,1.27,1.07s0,.07,0,.1v13.83A1.36,1.36,0,0,1,610,194l-27.86,1.17a1.39,1.39,0,0,0-1.29,1.32l-.07,5.78a1.22,1.22,0,0,0,1.2,1.23h.06l24.13-1a1.2,1.2,0,0,1,1.26,1.14.27.27,0,0,1,0,.09l-.29,14.84a1.3,1.3,0,0,1-1.3,1.26H582a1.31,1.31,0,0,0-1.29,1.29v6.1a1.3,1.3,0,0,0,1.29,1.29l27.42.48a1.32,1.32,0,0,1,1.27,1.32v14a1.23,1.23,0,0,1-1.23,1.23h0l-44.91-1.8a1.33,1.33,0,0,1-1.28-1.32l.62-60.42Zm-88.12,4.57,14.3-.94a1.49,1.49,0,0,1,1.54,1.17l6.71,32.33c.15.69.4.69.57,0l8.45-33.44a1.93,1.93,0,0,1,1.58-1.32l13.5-.89a1.57,1.57,0,0,1,1.6,1.14L532.22,219c.18.69.43.69.6,0l8.8-35.54a1.93,1.93,0,0,1,1.58-1.35l14.61-.94a.85.85,0,0,1,1,1.14l-16,60.17a1.67,1.67,0,0,1-1.6,1.21l-16.44-.46a1.75,1.75,0,0,1-1.59-1.26l-7.85-28.81c-.17-.69-.48-.69-.66,0L507,241.47a1.75,1.75,0,0,1-1.61,1.2l-16.26-.45a1.82,1.82,0,0,1-1.59-1.3l-12.8-53a1,1,0,0,1,1-1.32Zm-4.22,141.09V275.44a1.3,1.3,0,0,0-1.28-1.29l-18.35-.43a1.4,1.4,0,0,1-1.34-1.32l-.67-16.49a1.21,1.21,0,0,1,1.14-1.26h.08l59.33,1.41a1.26,1.26,0,0,1,1.25,1.29l-.33,15.95a1.36,1.36,0,0,1-1.3,1.29l-16.7.06a1.31,1.31,0,0,0-1.27,1.29v50.53a1.36,1.36,0,0,1-1.28,1.35l-18,1a1.18,1.18,0,0,1-1.28-1.05.76.76,0,0,1,0-.15ZM513,292.77c0-28.12,19.37-36.39,35.42-36.39s34.3,10.7,34.3,33.95c0,27.86-20.28,36.39-35.43,36.39S513,316.11,513,292.77Zm75.35-1.69c0-25.6,17.09-32.81,31.69-32.81s31.22,9.73,31.22,30.89c0,25.35-18.46,33.14-32.23,33.14S588.38,312.33,588.38,291.08ZM694.8,316.17a2.6,2.6,0,0,1-2-.94l-17.4-23.91c-.42-.58-.78-.46-.78.26v24.48a1.37,1.37,0,0,1-1.26,1.35l-15.42.9a1.21,1.21,0,0,1-1.27-1.13.17.17,0,0,1,0-.07l.58-56.33a1.25,1.25,0,0,1,1.29-1.24l12.91.3a2.89,2.89,0,0,1,2,1.08l19,27.89c.39.6.75.48.75-.21l.47-27.06a1.26,1.26,0,0,1,1.29-1.26h0l14.12.42a1.25,1.25,0,0,1,1.22,1.32l-2,52.12a1.41,1.41,0,0,1-1.33,1.35l-12.07.68Zm-57.13-114,10.61-.21s6.89.27,6.89-6.36c0-5.23-6-4.84-6-4.84l-11.47.12a1.32,1.32,0,0,0-1.29,1.29V201a1.22,1.22,0,0,0,1.2,1.23ZM637.24,231h14.52a5.76,5.76,0,0,0,5.13-5.92c0-4.3-3.36-5.9-6.47-5.84l-13.16.43A1.3,1.3,0,0,0,636,221v8.73a1.26,1.26,0,0,0,1.25,1.28Z"/></g></g></svg>