<?xml version="1.0" encoding="utf-8"?>
<!-- Generator: Adobe Illustrator 24.3.0, SVG Export Plug-In . SVG Version: 6.00 Build 0)  -->
<svg version="1.1" id="Layer_1" xmlns="http://www.w3.org/2000/svg" xmlns:xlink="http://www.w3.org/1999/xlink" x="0px" y="0px"
	 viewBox="0 0 512 512" style="enable-background:new 0 0 512 512;" xml:space="preserve">
<style type="text/css">
	.st0{fill:#D80027;}
	.st1{fill:#FFFFFF;filter:url(#Adobe_OpacityMaskFilter);}
	.st2{mask:url(#a_1_);}
	.st3{fill:#FFDA44;}
</style>
<rect class="st0" width="512" height="512"/>
<defs>
	<filter id="Adobe_OpacityMaskFilter" filterUnits="userSpaceOnUse" x="0" y="0" width="512" height="512">
		<feColorMatrix  type="matrix" values="1 0 0 0 0  0 1 0 0 0  0 0 1 0 0  0 0 0 1 0"/>
	</filter>
</defs>
<mask maskUnits="userSpaceOnUse" x="0" y="0" width="512" height="512" id="a_1_">
	<circle class="st1" cx="256" cy="256" r="256"/>
</mask>
<g class="st2">
	<path class="st0" d="M0,0h512v512H0V0z"/>
	<path class="st3" d="M140.1,155.8l22.1,68h71.5l-57.8,42.1l22.1,68l-57.9-42l-57.9,42l22.2-68l-57.9-42.1H118L140.1,155.8z
		 M303.5,396.5l-16.9-20.8l-25,9.7l14.5-22.5L259.2,342l25.9,6.9l14.6-22.5l1.4,26.8l26,6.9l-25.1,9.6L303.5,396.5z M337.1,335.5
		l8-25.6l-21.9-15.5L350,294l7.9-25.6l8.7,25.4l26.8-0.3l-21.5,16l8.6,25.4l-21.9-15.5L337.1,335.5z M382.4,187.9L370.6,212
		l19.2,18.7l-26.5-3.8l-11.8,24l-4.6-26.4l-26.6-3.8l23.8-12.5l-4.6-26.5l19.2,18.7L382.4,187.9z M304.2,114.9l-2,26.7l24.9,10.1
		l-26.1,6.4l-1.9,26.8L285,162.1l-26.1,6.4l17.3-20.5L262,125.3l24.9,10.1L304.2,114.9z"/>
</g>
</svg>
