<svg xmlns="http://www.w3.org/2000/svg" viewBox="0 0 1152 512"><defs><style>.cls-1{fill:#eee;}.cls-2{fill:#d80027;}.cls-3{fill:#0052b4;}.cls-4{fill:#333;}</style></defs><g id="Layer_2" data-name="Layer 2"><g id="Layer_2-2" data-name="Layer 2"><rect class="cls-1" width="1152" height="512"/><path class="cls-2" d="M665,256c0,22.3-39.8,78-89,78s-89-55.7-89-78a89,89,0,0,1,178,0Z"/><path class="cls-3" d="M665,256a89,89,0,0,1-178,0"/><path class="cls-4" d="M670.45,334.75l23.7-23.6,15.7,15.7-23.6,23.6Zm-39.3,39.4,23.6-23.7,15.7,15.8-23.6,23.6Zm86.6,7.8,23.6-23.6,15.7,15.7-23.6,23.7Zm-39.4,39.4,23.6-23.6,15.8,15.7-23.7,23.6Zm15.8-63,23.6-23.6,15.7,15.7-23.6,23.7Zm-39.4,39.4,23.6-23.6,15.8,15.7-23.7,23.6Zm63-220.4-63-63,15.8-15.7,63,63Zm-63-15.7L631.15,138l15.7-15.7,23.7,23.6Zm39.4,39.3-23.7-23.6,15.8-15.7,23.6,23.6Zm7.8-86.6-23.6-23.6,15.7-15.7,23.7,23.6Zm39.4,39.4-23.6-23.7,15.7-15.8,23.6,23.8Zm-330.6,204.6,63,63L458,437.05l-63-63Zm63,15.7,23.6,23.7-15.7,15.7L458,389.85Zm-39.4-39.3,23.6,23.6-15.7,15.8-23.6-23.7Zm23.6-23.6,63,63-15.7,15.7-63-63Zm15.8-220.4-63,63L395.05,138l63-63Zm23.6,23.6-63,63-15.7-15.8,63-63ZM521,138l-63,63-15.7-15.7,63-63Z"/></g></g></svg>