<svg width="22" height="21" viewBox="0 0 22 21" fill="none" xmlns="http://www.w3.org/2000/svg">
<path d="M14.4999 6.61382L20.1125 7.44184C20.5773 7.50823 20.9678 7.83632 21.1162 8.28548C21.2647 8.73855 21.1436 9.23068 20.8077 9.56657L16.7379 13.5583L17.6987 19.2841C17.7768 19.7528 17.5854 20.2293 17.1949 20.5066C16.8082 20.7839 16.2965 20.8191 15.8786 20.5964L10.8636 17.921L5.85255 20.5964C5.43073 20.8191 4.91908 20.7839 4.53241 20.5066C4.14574 20.2293 3.95045 19.7528 4.03247 19.2841L4.99329 13.5583L0.922709 9.56657C0.586423 9.23068 0.466907 8.73855 0.614545 8.28548C0.761792 7.83632 1.1512 7.50823 1.6195 7.44184L7.22738 6.61382L9.74269 1.44532C9.94969 1.01506 10.3871 0.741928 10.8636 0.741928C11.344 0.741928 11.7815 1.01506 11.9885 1.44532L14.4999 6.61382Z" fill="white"/>
</svg>
