<svg xmlns="http://www.w3.org/2000/svg" viewBox="0 0 151.47 221.72"><g id="Layer_2" data-name="Layer 2"><g id="Layer_1-2" data-name="Layer 1"><g id="Layer_2-2" data-name="Layer 2"><g id="Layer_2-2-2" data-name="Layer 2-2"><path d="M140.17,50.45l-.11-.35A.72.72,0,0,1,140.17,50.45Z"/><path d="M65.08,186.53a3.91,3.91,0,0,0-.41.3l.2-.39Z"/><path d="M61,193.8q1.09-2.13,2.23-4.29c-.06,1.46.8,2.76,1.65,2.87,1.46.19,1.6.5,1.42-3.41,3,1.89,1.24,6.49-.07,7.06A4.64,4.64,0,0,1,61,193.8Z"/><path d="M75.23,192.52c-11,15.89-21.29,27.84-27,29.2C51.64,214,56.05,205,61.12,195.41c2.42,4.06,5.88,2.35,6.3,2.17,6.49-4.33-1.39-11.3-1.39-11.3l2-3.4C70.41,186.33,72.84,189.62,75.23,192.52Z"/><path d="M87.09,172.08c-4,6.55-8,12.8-11.87,18.52-2.39-2.87-4.85-6.1-7.37-9.75,3.19-5.93,6.55-12,10-18.18A77.56,77.56,0,0,0,87.09,172.08Z"/><path d="M52.18,111c-6.49-10.15-19.91-24.91-20.59-25.72-4.07-10.64-9.75-25.62-16.8-35.11C16.45,29.86,1.26,12,1.26,12S7.34,8.87,21.15,33.93c3.42-3.08-1.81-15.37-1.93-15.66.29.36,12.2,15.48,16,26.61,3.82-2.78-.73-14.76-.83-15,.21.36,10,17.59,10.49,23.79,3.87,0,.27-8.77.27-8.77a37.15,37.15,0,0,1,7.74,23.18C52.92,79,51,99.1,52.18,111Z"/><path d="M42.85,130.67c1.89,4.38,4.09,10.26,6,15.55a37.48,37.48,0,0,0-6.52,7.93A114.8,114.8,0,0,0,42.85,130.67Z"/><path d="M66.16,141.36h-.08c-7.42-.63-12.75,1.4-16.45,4a209.38,209.38,0,0,0-8.34-20.29,149.33,149.33,0,0,0-7.93-33.53,203.38,203.38,0,0,1,18.56,23.22,9.59,9.59,0,0,0,.74,1.55l.2-.16A131.14,131.14,0,0,1,66.16,141.36Z"/><path d="M100.34,203.24c-1.54,1.79,11.5,9.47,16.62,6.65,4.1-2.26-14,13.94-41.74-19.29-2.39-2.87-4.85-6.1-7.37-9.75q-3.45-5-7-11l-.68-1.15c-.66.83-1,2.1-.36,4-1.26-2.08-2.51-4.22-3.76-6.45h0l-.41-.72-.2-.37q-1.08-1.92-2.13-3.92a16.15,16.15,0,0,0,2.6-.17q-1.27-2.37-2.57-4.89c-1.24-3.88-2.46-7.48-3.66-10.83a212,212,0,0,0-8.34-20.29c-12.65-26.31-21.24-23.86-21.24-23.86a106.75,106.75,0,0,1-6.4-18.92A42.06,42.06,0,0,0,6.51,66.46,234.76,234.76,0,0,1,33.36,91.55a203.38,203.38,0,0,1,18.56,23.22l.95,1.39a130.85,130.85,0,0,1,13.3,25.21c.32.85.64,1.7.94,2.56a61.7,61.7,0,0,0,10.74,18.74,77.66,77.66,0,0,0,9.25,9.42c23.32,20.13,55.69,26.55,55.69,26.55s-13.55,4.86-27.35,0c2.3,5.12,11,7.67,18.92,8.7S115.17,211.16,100.34,203.24Z"/><path d="M100.34,203.24c-1.54,1.79,11.5,9.47,16.62,6.65,4.1-2.26-14,13.94-41.74-19.29-2.39-2.87-4.85-6.1-7.37-9.75q-3.45-5-7-11l-.68-1.15c-.69-1.18-1.39-2.39-2.09-3.64l-.35-.63-.6-1.08c-.41-.74-.82-1.49-1.23-2.26q-1.28-2.37-2.57-4.89-1.86-5.81-3.67-10.82a209.92,209.92,0,0,0-8.33-20.3c-12.64-26.3-21.23-23.85-21.23-23.85a106.75,106.75,0,0,1-6.4-18.92A42.06,42.06,0,0,0,6.51,66.46,234.76,234.76,0,0,1,33.36,91.55a203.38,203.38,0,0,1,18.56,23.22l.95,1.39a130.85,130.85,0,0,1,13.3,25.21c.32.85.64,1.7.94,2.56a61.7,61.7,0,0,0,10.74,18.74,77.66,77.66,0,0,0,9.25,9.42c23.32,20.13,55.69,26.55,55.69,26.55s-13.55,4.86-27.35,0c2.3,5.12,11,7.67,18.92,8.7S115.17,211.16,100.34,203.24Z"/><path d="M8.44,166.91c.51-1-4.6-25.32-8.44-29.66C12.07,130,27.1,122.4,31.7,114c5.07,5.87,6.91,30,6.91,30s-16.12,24.7-15.09,34.67c-2.23-3-6.9-18.67-7.16-19.68s10.49-9.25,11.51-15a27.16,27.16,0,0,0-.26-10.59s-7.67,11.76-13.55,15.34S8.44,166.91,8.44,166.91Z"/><path d="M61.2,161.9s-.38-.74-3.5,2.52l-.83.89,1.18-.26a39.09,39.09,0,0,0,5-1.53Zm2.3-2.83-4.06,1.21c0-.08-1.47.5-3.57.8a16.35,16.35,0,0,1-2.61.17,10.69,10.69,0,0,1-9.48-5.35c-6.46-2.13-3.74,7.46-3.37,8.6s-2.7,4.65-6,6.89-2.89,2.81-2.89,2.81-.19,4.16-1,5.12-3.09,2-2.59,5.15,2.25,4.46,5.4,3.08c-1.6-1.43-2.55-1.73-2.29-3.11s2.84-2,2.84-2a7.65,7.65,0,0,1,1.4-6.91c.17,3.23-2.07,9,.11,10.78a3.67,3.67,0,0,0,4.52-.54c.28,2,.89,3.76,2.08,4.4a2,2,0,0,0,.79.25h0c-.11-.4-.22-.81-.35-1.21l-.08-.27.19-.2c.5-.51.83-.85,1.1-1.15h0a1.72,1.72,0,0,1-.33-.68,4.71,4.71,0,0,1,.66-3.11,3.47,3.47,0,0,1,.56-.76h0c-.56-.28-.88-1.55-.88-1.55s-.92-5.1.82-7.08,5.29,2.1,5.29,2.1,1.16-5-1.92-7.73c-4.07-.94-3.77-2.73-3.77-2.73l.31-4.45S50,166,55,165.61l.58-.07h0l.5-.08.41-.48c.3-.33.58-.62.84-.89,2.37-2.46,3.22-2.75,3.66-2.75a.71.71,0,0,1,.53.22l1.8,1.6.18.16.73-.3c.48-.19.73-.31.73-.31ZM39.8,184.9c-5-1.24,0-7.34.1-7.43A45.9,45.9,0,0,0,39.8,184.9Zm4.2,3c-.3.33-.67.71-1.1,1.15.15.51.28,1,.39,1.4a8.25,8.25,0,0,0,4.15-.79,3.41,3.41,0,0,1,.63-1.28c-1.29.17-3.09.23-4.07-.48Zm5.18.29-.41.08a4.16,4.16,0,0,0-.32.39,3.75,3.75,0,0,0-.4.66,6.44,6.44,0,0,0,1.12-.82,4.89,4.89,0,0,0,.4-.39l-.39.08Z"/><path d="M66.26,196A4.64,4.64,0,0,1,61,193.8a5.41,5.41,0,0,1-.63-2.29,5.29,5.29,0,0,0-2.31-1.11l0-1.51s-1.78-4.55-1.73-6.21a8.65,8.65,0,0,0-2.3,3.56c-.3.45.56,1.06.56,1.06s-1.77,5.82.1,6.92,3.12-1.72,2.87-3.08,2.34,5.32-.91,6.43c-1.81.63-3.69-1.47-5-3.45-.51-.92-1.06-2-1.69-3v0c.43-.49.22-.47-.13-.34a.17.17,0,0,0,0-.07v0a3.81,3.81,0,0,1-.19-.81c0-.06,0-.11,0-.16a8.24,8.24,0,0,0,0-2.8,7.94,7.94,0,0,0-1.62,1.55,3.48,3.48,0,0,0-.63,1.28,2.15,2.15,0,0,0,.65,2.09c-.85,3.58,1.9,6.06,3.83,4.46,2.23,4.26-8,4.82-5.81-1.66-1.56-1.69-2.32-.81-2.32-.81a13.73,13.73,0,0,0-.5-3.28c-.11-.43-.24-.9-.39-1.4l1.1-1.15c1.71-1.83,1.55-2.11,1.23-3.9.5-.17.86-.31,1.11-.41h0a.91.91,0,0,0,.34-.17c.16-.1.18-.15.17-.19s0,0,0-.05l0-.05a1.76,1.76,0,0,0,.19-.39.14.14,0,0,1,0-.06,2.81,2.81,0,0,0,.17-.54.41.41,0,0,0,0-.22,5.23,5.23,0,0,0-.06-2.52c4-.19,7.41-3.25,8.1-12.4.22-.26.44-.52.66-.76h0c.3-.34.58-.66.85-.95l.82-.88c3.13-3.27,3.51-2.53,3.51-2.53l1.83,1.63.49-.19-.18-.17-1.81-1.62a.69.69,0,0,0-.52-.22c-.45,0-1.31.29-3.67,2.75-.26.27-.54.56-.83.89-.14.15-.28.3-.42.47s-.33.06-.5.09h0l-.58.07.11-.12.27-.32.59-.66.85-.91.25-.26c2.32-2.37,3.29-2.7,3.93-2.7a1.42,1.42,0,0,1,1,.43l1.76,1.57.45.39,2.65,2.37-3.74,3-.3,0a3.39,3.39,0,0,0-1.81,1,1.67,1.67,0,0,0-.25.4l-.41-.71-.28-.45c-.66.83-1,2.1-.36,4v0a12.52,12.52,0,0,0,.51,1.19c.15.29.28.54.41.77a.8.8,0,0,0,.06.3,6.27,6.27,0,0,0,1.09,1.69,3.54,3.54,0,0,1-.35,1.32c-1.06,2,.46,7.14,3.37,8.43l.2.09-.41.29h0a3.62,3.62,0,0,0-1.42,2.67h0c-.06,1.47.81,2.77,1.66,2.88,1.46.19,1.6.49,1.42-3.42C69.36,190.85,67.57,195.46,66.26,196Z"/><path d="M44.55,183h0l-.63.22.1.56A3,3,0,0,1,44.55,183Z"/><path d="M42.36,189l.2-.2,1.1-1.14h0a1.79,1.79,0,0,1-.34-.69l-.19.21L42,188.26l-.49.5.21.67c.08.26.15.51.22.76a2.16,2.16,0,0,0,.78.25h0c-.1-.4-.22-.81-.34-1.22Z"/><path d="M49.18,188.22l-.41.08a4.16,4.16,0,0,0-.32.39,3.75,3.75,0,0,0-.4.66,6.44,6.44,0,0,0,1.12-.82,4.89,4.89,0,0,0,.4-.39Z"/><path d="M66.26,196A4.64,4.64,0,0,1,61,193.8a5.41,5.41,0,0,1-.63-2.29,5.29,5.29,0,0,0-2.31-1.11l0-1.51s-1.78-4.55-1.73-6.21a8.65,8.65,0,0,0-2.3,3.56c-.3.45.56,1.06.56,1.06s-1.77,5.82.1,6.92,3.12-1.72,2.87-3.08,2.34,5.32-.91,6.43c-1.81.63-3.69-1.47-5-3.45-.51-.92-1.06-2-1.69-3v0c.43-.49.22-.47-.13-.34a.17.17,0,0,0,0-.07v0a3.81,3.81,0,0,1-.19-.81c0-.06,0-.11,0-.16a8.24,8.24,0,0,0,0-2.8,7.94,7.94,0,0,0-1.62,1.55,3.48,3.48,0,0,0-.63,1.28,2.15,2.15,0,0,0,.65,2.09c-.85,3.58,1.9,6.06,3.83,4.46,2.23,4.26-8,4.82-5.81-1.66-1.56-1.69-2.32-.81-2.32-.81a13.73,13.73,0,0,0-.5-3.28c-.11-.43-.24-.9-.39-1.4l1.1-1.15c1.71-1.83,1.55-2.11,1.23-3.9.5-.17.86-.31,1.11-.41h0a.91.91,0,0,0,.34-.17c.16-.1.18-.15.17-.19s0,0,0-.05l0-.05a1.76,1.76,0,0,0,.19-.39.14.14,0,0,1,0-.06,2.81,2.81,0,0,0,.17-.54.41.41,0,0,0,0-.22,5.23,5.23,0,0,0-.06-2.52c4-.19,7.41-3.25,8.1-12.4.22-.26.44-.52.66-.76h0c.3-.34.58-.66.85-.95l.82-.88c3.13-3.27,3.51-2.53,3.51-2.53l1.83,1.63.49-.19,2.28,2-2.93,2.31-.11,0A4.17,4.17,0,0,0,60.52,169l-.1.15-.29-.47c-.66.83-1,2.1-.36,4v0a12.52,12.52,0,0,0,.51,1.19c.15.29.28.54.41.77a.8.8,0,0,0,.06.3,6.27,6.27,0,0,0,1.09,1.69,3.54,3.54,0,0,1-.35,1.32c-1.06,2,.46,7.14,3.37,8.43l.2.09-.41.29h0a3.62,3.62,0,0,0-1.42,2.67h0c-.06,1.47.81,2.77,1.66,2.88,1.46.19,1.6.49,1.42-3.42C69.36,190.85,67.57,195.46,66.26,196Z"/><path d="M66.26,196A4.64,4.64,0,0,1,61,193.8a5.41,5.41,0,0,1-.63-2.29,5.29,5.29,0,0,0-2.31-1.11l0-1.51s-1.78-4.55-1.73-6.21a8.65,8.65,0,0,0-2.3,3.56c-.3.45.56,1.06.56,1.06s-1.77,5.82.1,6.92,3.12-1.72,2.87-3.08,2.34,5.32-.91,6.43c-1.81.63-3.69-1.47-5-3.45-.51-.92-1.06-2-1.69-3v0l-.13-.34a.17.17,0,0,0,0-.07v0a7.33,7.33,0,0,1-.19-.81c0-.06,0-.11,0-.16a8.24,8.24,0,0,0,0-2.8,7.94,7.94,0,0,0-1.62,1.55,3.48,3.48,0,0,0-.63,1.28,2.15,2.15,0,0,0,.65,2.09c-.85,3.58,1.9,6.06,3.83,4.46,2.23,4.26-8,4.82-5.81-1.66-1.56-1.69-2.32-.81-2.32-.81a13.73,13.73,0,0,0-.5-3.28c-.11-.43-.24-.9-.39-1.4l1.1-1.15c1.71-1.83,1.55-2.11,1.23-3.9.5-.17.86-.31,1.11-.41h0a.91.91,0,0,0,.34-.17c.16-.1.18-.15.17-.19s0,0,0-.05l0-.05a1.76,1.76,0,0,0,.19-.39.14.14,0,0,1,0-.06,2.81,2.81,0,0,0,.17-.54.41.41,0,0,0,0-.22,5.23,5.23,0,0,0-.06-2.52c4-.19,7.41-3.25,8.1-12.4.22-.26.44-.52.66-.76h0c.3-.34.58-.66.85-.95l.82-.88c3.13-3.27,3.51-2.53,3.51-2.53l1.83,1.63,2,1.82-2.39,1.89a4.58,4.58,0,0,0-2.57,1.43c-.66.83-1,2.1-.36,4v0a12.52,12.52,0,0,0,.51,1.19c.15.29.28.54.41.77a.8.8,0,0,0,.06.3,6.27,6.27,0,0,0,1.09,1.69,3.54,3.54,0,0,1-.35,1.32c-1.06,2,.46,7.14,3.37,8.43l.2.09-.41.29h0a3.62,3.62,0,0,0-1.42,2.67h0c-.06,1.47.81,2.77,1.66,2.88,1.46.19,1.6.49,1.42-3.42C69.36,190.85,67.57,195.46,66.26,196Z"/></g></g><path d="M147,55.75c.34,6-35.76,59.23-65.88,108.39a38.15,38.15,0,0,0,9.7,8.84c29.13-43.64,60.65-99.83,60.65-99.83Z"/><path d="M114.2,0s-6.32,8-7.11,14.52,12.27,37.67,12.27,37.67a11.64,11.64,0,0,0-2.47.45c-1.27-3.73-4.85-8.39-7.09-10.79,0,.3,0,.59-.08.9s-.15.83-.21,1.21c0,.12,0,.22-.06.34-.64,4-3.82,9.29-3.82,9.29s3.72,7.58,3.51,8.61c-1.88-.88-6.23-5.15-6.23-5.15l-6.54,9.89s4.21,3.8,4.64,11.43c-5.71-.17-6.34.54-8.68,1.55,6,43.73-19,50.08-26.19,48.12h0l-4.53.33A145.13,145.13,0,0,1,67.91,144c43.77-.88,33-51.28,36.07-53.84s11.94,2.9,10.12.38-.84-14.46-.84-14.46,2.86.58,9.23,2.46c.17-4.38-1.55-9.14-.91-15.91a20.79,20.79,0,0,1,9.65,1.46l.84-22.4C121.7,33.68,114.2,0,114.2,0Z"/><path d="M63.27,124a1.25,1.25,0,0,1,.12-.43c2.94-4.86,21.6-27.1,23.14-29.91s-.25-22.49-.76-21-5.62,11.46-5.62,11.46l-.52-2.76-5.4,8.68s-2-7.94-1.18-9.48,7.1-15.39,7.1-15.39v3.55c4.09-3.58,17.77-39.09,17.77-39.09s-1.63-13.3-3.55-22.51C94.75,24.28,62,67.51,57.65,74.66c1.4,7,1.34,31.36-4.38,38.44a131.11,131.11,0,0,1,7.52,12.8h0S63.32,122.4,63.27,124Z"/><path d="M63.25,124.28h0v0h0Z"/><path d="M66.14,128c-.12-.06-3.16-1.63-2.89-3.76v0h0a1.14,1.14,0,0,0,0-.25c0-1.59-2.48,1.9-2.48,1.9h0l.84,2.48,4.53-.33Z"/></g></g></svg>